# Blender v2.82 (sub 7) OBJ File: ''
# www.blender.org
mtllib untitled.mtl
o Cube
v 8.198054 1.000000 -1.000000
v 8.198054 0.326788 -1.000000
v 8.198054 1.000000 1.000000
v 8.198054 0.326788 1.000000
v 10.388391 -0.450082 -1.000000
v 10.388391 -1.206053 -1.000000
v 10.388391 -0.450082 1.000000
v 10.388391 -1.206053 1.000000
v 16.657188 0.971780 -0.379168
v 16.657188 0.547884 -0.379168
v 16.657188 0.971780 0.294509
v 16.657188 0.547884 0.294509
v -8.198054 1.000000 -1.000000
v -8.198054 0.326788 -1.000000
v -8.198054 1.000000 1.000000
v -8.198054 0.326788 1.000000
v 0.000000 1.000000 -1.000000
v 0.000000 -1.000000 -1.000000
v 0.000000 1.000000 1.000000
v 0.000000 -1.000000 1.000000
v -10.388391 -0.450082 -1.000000
v -10.388391 -1.206053 -1.000000
v -10.388391 -0.450082 1.000000
v -10.388391 -1.206053 1.000000
v -16.657188 0.971780 -0.379168
v -16.657188 0.547884 -0.379168
v -16.657188 0.971780 0.294509
v -16.657188 0.547884 0.294509
vt 0.625000 0.500000
vt 0.875000 0.500000
vt 0.875000 0.750000
vt 0.625000 0.750000
vt 0.375000 0.750000
vt 0.625000 1.000000
vt 0.375000 1.000000
vt 0.125000 0.500000
vt 0.375000 0.500000
vt 0.125000 0.750000
vt 0.375000 0.750000
vt 0.625000 0.750000
vt 0.375000 0.250000
vt 0.625000 0.250000
vt 0.375000 0.500000
vt 0.375000 0.500000
vt 0.375000 0.750000
vt 0.625000 0.500000
vt 0.625000 0.500000
vt 0.625000 0.750000
vt 0.625000 0.500000
vt 0.625000 0.750000
vt 0.375000 0.750000
vt 0.375000 0.000000
vt 0.625000 0.000000
vt 0.375000 0.500000
vt 0.625000 0.750000
vt 0.375000 0.750000
vt 0.375000 0.750000
vt 0.375000 0.500000
vt 0.375000 0.500000
vt 0.625000 0.500000
vt 0.625000 0.750000
vt 0.625000 0.500000
vn 0.0000 1.0000 0.0000
vn 0.0000 0.0000 1.0000
vn 0.1598 -0.9872 0.0000
vn 0.0000 0.0000 -1.0000
vn 0.2694 -0.9630 0.0000
vn -0.5734 -0.8193 0.0000
vn 0.5520 0.8338 0.0000
vn 1.0000 0.0000 0.0000
vn 0.1118 0.0000 0.9937
vn -0.2212 0.9752 0.0000
vn 0.0986 0.0000 -0.9951
vn -0.1598 -0.9872 0.0000
vn -0.2694 -0.9630 0.0000
vn 0.5734 -0.8193 0.0000
vn -0.5520 0.8338 0.0000
vn -1.0000 0.0000 0.0000
vn -0.1118 0.0000 0.9937
vn 0.2212 0.9752 0.0000
vn -0.0986 0.0000 -0.9951
usemtl Material
s off
f 1/1/1 17/2/1 19/3/1 3/4/1
f 4/5/2 3/4/2 19/6/2 20/7/2
f 18/8/3 2/9/3 4/5/3 20/10/3
f 3/4/2 4/5/2 8/11/2 7/12/2
f 18/13/4 17/14/4 1/1/4 2/9/4
f 8/11/5 6/15/5 10/16/5 12/17/5
f 2/9/4 1/1/4 5/18/4 6/15/4
f 4/5/6 2/9/6 6/15/6 8/11/6
f 1/1/7 3/4/7 7/12/7 5/18/7
f 10/16/8 9/19/8 11/20/8 12/17/8
f 7/12/9 8/11/9 12/17/9 11/20/9
f 5/18/10 7/12/10 11/20/10 9/19/10
f 6/15/11 5/18/11 9/19/11 10/16/11
f 13/21/1 15/22/1 19/3/1 17/2/1
f 16/23/2 20/7/2 19/6/2 15/22/2
f 20/24/8 18/13/8 17/14/8 19/25/8
f 18/8/12 20/10/12 16/23/12 14/26/12
f 15/22/2 23/27/2 24/28/2 16/23/2
f 18/13/4 14/26/4 13/21/4 17/14/4
f 24/28/13 28/29/13 26/30/13 22/31/13
f 14/26/4 22/31/4 21/32/4 13/21/4
f 16/23/14 24/28/14 22/31/14 14/26/14
f 13/21/15 21/32/15 23/27/15 15/22/15
f 26/30/16 28/29/16 27/33/16 25/34/16
f 23/27/17 27/33/17 28/29/17 24/28/17
f 21/32/18 25/34/18 27/33/18 23/27/18
f 22/31/19 26/30/19 25/34/19 21/32/19
